<svg xmlns="http://www.w3.org/2000/svg" viewBox="0 0 17.16 19"><defs><style>.a{fill:#fff;}</style></defs><path class="a" d="M9.2,6.25a.61.61,0,0,0-.62-.61A.61.61,0,0,0,8,6.25V9.81H4.29a.61.61,0,0,0,0,1.22H8.58a.61.61,0,0,0,.62-.61Z"/><path class="a" d="M6.74.61A.61.61,0,0,1,7.36,0H9.81a.61.61,0,0,1,.61.61.61.61,0,0,1-.61.62v.69a8.55,8.55,0,0,1,4.39,2h0l.43-.43-.43-.44a.6.6,0,0,1,0-.86.61.61,0,0,1,.86,0h0l1.74,1.74A.62.62,0,0,1,16,4.8h0l-.43-.44-.44.44h0A8.61,8.61,0,1,1,7.36,1.93v-.7A.62.62,0,0,1,6.74.61ZM8.58,3.06a7.36,7.36,0,1,0,7.36,7.36A7.36,7.36,0,0,0,8.58,3.06Z"/></svg>