<svg xmlns="http://www.w3.org/2000/svg" viewBox="0 0 117 117"><defs><style>.a{fill:#545e88;opacity:0.38;}.b{fill:none;stroke:#4887b7;stroke-linecap:round;stroke-miterlimit:10;stroke-width:2px;}.c{fill:#fff;}</style></defs><circle class="a" cx="58.5" cy="58.5" r="58.5"/><path class="b" d="M3,43.45A58.67,58.67,0,0,1,29.39,8.33"/><path class="b" d="M114.39,73.33A58.57,58.57,0,0,1,88,108.45"/><path class="c" d="M41.22,52.33a1.92,1.92,0,0,1,1.93,1.93v3.86a15.45,15.45,0,0,0,30.89,0V54.26a1.93,1.93,0,0,1,3.86,0v3.86a19.3,19.3,0,0,1-17.37,19.2v7.82H72.11a1.93,1.93,0,1,1,0,3.86h-27a1.93,1.93,0,1,1,0-3.86H56.67V77.32a19.3,19.3,0,0,1-17.38-19.2V54.26A1.93,1.93,0,0,1,41.22,52.33Z"/><path class="c" d="M66.32,58.12a7.72,7.72,0,0,1-15.44,0V38.82a7.72,7.72,0,1,1,15.44,0ZM58.6,27.24A11.58,11.58,0,0,0,47,38.82v19.3a11.59,11.59,0,0,0,23.17,0V38.82A11.58,11.58,0,0,0,58.6,27.24Z"/></svg>